<svg xmlns="http://www.w3.org/2000/svg" width="256" height="256" id="ironman"><path fill="#B71C1C" d="M128 247.322C62.1 247.322 8.678 193.9 8.678 128 8.678 194.274 62.1 248 128 248s119.322-53.726 119.322-120c0 65.9-53.422 119.322-119.322 119.322z" opacity=".2"></path><path fill="#FFF" d="M128 8.678C193.9 8.678 247.322 62.1 247.322 128 247.322 61.726 193.9 8 128 8S8.678 61.726 8.678 128C8.678 62.1 62.1 8.678 128 8.678z" opacity=".2"></path><circle cx="128" cy="128" r="119.322" fill="#F44336"></circle><path fill="#BF360C" d="m113.963 97.672 13.896 2.58 15.294-2.903 4.677-49.35c25.643 6.29 28.384 12.418 28.384 12.418l.484 54.51c2.362 2.58 3.74 8.21 4.315 13.066-.575-4.897-1.952-10.575-4.315-13.177l-.484-54.972s-2.742-6.18-28.384-12.523l-4.677 49.768-15.294 2.928-13.896-2.602s-4.892-45.865-5.107-49.172c-16.127.217-29.459 11.06-29.459 11.06v.577s13.332-10.752 29.459-10.967c.215 3.28 5.107 48.759 5.107 48.759z" opacity=".2"></path><linearGradient id="a" x1="72.807" x2="215.541" y1="66.47" y2="209.204" gradientUnits="userSpaceOnUse"><stop offset="0" stop-color="#212121" stop-opacity=".2"></stop><stop offset="1" stop-color="#212121" stop-opacity="0"></stop></linearGradient><path fill="url(#a)" d="M247.276 131.258c-.184-.182-70.806-70.843-71.417-71.364-1.285-1.607-6.826-6.694-28.028-11.894l-3.5 36.935c-.201.006-35.459-35.794-35.474-36.021-16.128.215-29.46 10.966-29.46 10.966v54.833s-2.471 6.758-3.84 13.283c-.514 2.471-.876 4.907-.889 6.937 3.599 14.588 23.748 38.512 23.659 47.691.01.167.002.321 0 .48 1.711 2.645 7.329 10.65 7.329 10.65.332.464 1.758 2.04 1.929 2.304l-.44.396-8.787-8.838s-1.081 4.927-1.199 7.512c.111.316 2.754 7.743 7.489 12.872.041-.025 38.042 37.991 38.396 38.381 57.744-7.265 102.642-55.793 104.232-115.123z"></path><g fill="#FFEB3B"><path d="m109.689 188.63 36.744-.161 4.247 5.268s2.603-3.124 7.231-11.397c2.983-14.73 19.863-32.362 23.143-46.447.166-.543.388-11.369-4.354-20.966l-.484-54.51S173.473 54.29 147.831 48l-4.677 49.35-15.294 2.903-13.896-2.58s-4.892-45.479-5.107-48.758c-16.128.214-29.46 10.965-29.46 10.965v54.833s-2.471 6.758-3.84 13.283c-.514 2.471-.876 4.907-.889 6.937 3.599 14.588 23.748 38.512 23.659 47.691.01.167.002.321 0 .48l7.089 10.956 4.273-5.43z"></path><path d="m123.195 205.258 1.532-1.613 6.451-.161 1.693 1.855s10.967-1.935 18.224 2.661c3.226-1.935 7.741-13.977 7.741-13.977.006-.087.006-.182.009-.273-.069-2.564-.976-6.133-.976-6.133l-7.285 11.086-4.542-5.746-35.372.325-5.404 4.866-6.907-10.531s-1.081 4.927-1.199 7.512c.111.316 2.754 7.743 7.489 12.872 9.138-5.484 18.546-2.743 18.546-2.743z"></path></g><path fill="#FFF" d="M86.708 121.863s30.333 14.376 29.674 15.482c-.484 3.629-4.032 6.773-4.032 6.773-35.963-1.45-25.642-22.255-25.642-22.255zM170.365 121.851s-30.333 14.376-29.674 15.482c.484 3.629 4.032 6.773 4.032 6.773 35.964-1.451 25.642-22.255 25.642-22.255z"></path></svg>